<svg xmlns="http://www.w3.org/2000/svg" height="2048" preserveAspectRatio="none" style="display: block;" version="1.1" viewBox="0 0 2048 2048" width="2048">
<path d="M 0 0 L 2048 0 L 2048 2048 L 0 2048 L 0 0 z" fill="rgb(17,68,38)" transform="translate(0,0)"></path>
<path d="M 1019.62 552.326 C 1022.14 552.126 1024.29 552.124 1026.83 552.202 C 1047.15 552.828 1066.36 561.564 1080.19 576.458 C 1099.95 597.744 1100.96 616.745 1100.12 643.781 C 1150.05 643.744 1209.6 637.257 1229.82 696.981 C 1328.62 705.545 1399.27 782.345 1399.31 881.566 L 1399.09 1173.8 L 1399.14 1262.62 C 1399.15 1292.14 1400.81 1323.23 1393.91 1352.04 C 1378.7 1415.5 1326.21 1470.35 1262.99 1487.21 C 1228.45 1496.42 1184.34 1493.77 1148.04 1493.77 L 1030.5 1493.73 L 897.487 1493.76 C 865.871 1493.76 821.846 1495.74 792.179 1488.83 C 762.618 1481.99 735.198 1467.97 712.344 1448.02 C 674.824 1415.28 652.127 1368.76 649.408 1319.04 C 647.874 1292.06 648.971 1252.58 648.982 1224.71 L 648.981 1049.79 L 648.857 931.219 C 648.773 902.798 646.306 864.197 652.367 837.447 C 670.556 757.165 738.287 701.663 819.409 697.829 C 838.706 636.233 899.279 643.81 950.397 643.866 C 949.545 619.853 949.763 602.983 965.05 582.445 C 978.63 564.2 997.442 555.298 1019.62 552.326 z" fill="rgb(241,243,242)" transform="translate(0,0)"></path>
<path d="M 1229.59 727.589 C 1234.61 731.913 1253.05 733.407 1262.15 736.477 C 1300.75 749.101 1332.54 776.891 1350.21 813.449 C 1370.85 855.687 1366.39 890.504 1366.32 935.902 L 1366.06 1062.67 L 1365.87 1229.17 C 1365.82 1265.61 1369.19 1324.72 1357.75 1357.25 C 1344.19 1396.7 1315.36 1429.06 1277.72 1447.06 C 1239.28 1465.4 1202.59 1461.34 1161.35 1461.34 L 1037.6 1461.35 L 898.578 1461.33 C 857.676 1461.32 818.394 1465.06 779.354 1451.08 C 765.624 1445.68 752.779 1438.27 741.245 1429.07 C 709.383 1404.17 688.792 1367.57 684.052 1327.41 C 682.056 1309.64 683.154 1271.83 683.095 1252.86 L 682.664 1103.72 L 682.165 945.005 C 682.08 923.879 680.741 874.386 683.628 855.16 C 687.537 829.631 698.059 805.57 714.149 785.369 C 743.127 749.248 777.174 734.944 821.739 729.889 L 822.132 730.886 L 822.803 732.539 L 823.336 733.912 C 842.822 783.139 897.274 777.128 939.729 777.066 L 1029.18 777.092 L 1114.34 777.129 C 1164.08 777.137 1206.98 782.15 1229.59 727.589 z" fill="rgb(17,68,38)" transform="translate(0,0)"></path>
<path d="M 722.175 1166.94 C 742.246 1149.8 762.117 1132.59 781.891 1115.12 C 800.177 1098.96 823.595 1071.66 843.971 1060.24 C 851.624 1055.9 860.409 1053.96 869.178 1054.69 C 898.708 1056.9 916.705 1082.27 935.346 1101.58 C 950.623 1117.41 968.16 1131.52 983.774 1147.05 C 1008.04 1171.44 1025.23 1194.74 1054.13 1215.04 C 1091.23 1241.11 1139.52 1258.3 1183.92 1267.21 L 1188.7 1265.76 C 1134.37 1247.35 1089.76 1205.41 1058.9 1157.94 C 1074.78 1145.23 1091.88 1131.33 1107.19 1117.05 C 1142.03 1084.52 1176.85 1027.78 1228.4 1072.88 C 1244.85 1087.28 1259.1 1105.71 1275.44 1120.4 C 1291.82 1136.03 1307.47 1147.99 1327.09 1159.54 L 1327.07 1260.85 C 1327.09 1308.46 1333.9 1347.66 1295.93 1384.6 C 1259.59 1419.95 1231.34 1417.26 1184.42 1417.19 L 926.571 1417.16 L 856.752 1417.17 C 843.095 1417.16 823.346 1418.01 810.221 1415.65 C 770.461 1408.49 734.279 1374.44 725.767 1334.81 C 720.401 1309.83 722.245 1280.4 722.31 1254.82 L 722.175 1166.94 z" fill="rgb(241,243,242)" transform="translate(0,0)"></path>
<path d="M 1188.7 1265.76 C 1189.58 1266.16 1192.69 1267.13 1192.65 1268.27 C 1191.77 1268.94 1185.37 1267.51 1183.92 1267.21 L 1188.7 1265.76 z" fill="rgb(76,104,90)" transform="translate(0,0)"></path>
<path d="M 1014.25 913.387 C 1094.36 905.807 1159.92 971.432 1161.22 1050.46 C 1111.06 1052.49 1091.7 1088.3 1056.65 1118.34 C 1049.97 1124.07 1044.13 1131.12 1035.94 1134.69 C 1011.31 1135.45 954.081 1066.05 931.117 1055.89 C 914.669 1048.62 905.853 1047.7 887.922 1047.44 C 891.543 973.896 940.419 920.437 1014.25 913.387 z" fill="rgb(241,243,242)" transform="translate(0,0)"></path>
<metadata><recraft-signature>{"signed_by": "recraft", "signature_b64": "TkW16EMZQgBMQrZnRLzlcy+uTEinGj0VKe/Zdax55wlrDjPeQgWnrwys6jNWCqBSMYlZkqqKeFPBt4oRowdQDA==", "signing_algo": "Ed25519", "generation_timestamp": 1773135439, "identifier": "40261d48-b46e-4454-8325-3b9d47e09afe"}</recraft-signature></metadata></svg>